<svg xmlns="http://www.w3.org/2000/svg" width="213.91" height="36" viewBox="0 0 213.91 36"><defs><style>.a{fill:#fff;}</style></defs><g transform="translate(0 0)"><path class="a" d="M34.621,10.26,33.208,11.7a13.491,13.491,0,0,1,.353,3.24,12.905,12.905,0,0,1-3.8,9.27l-9.1,9.27L2.473,14.94l4.416-4.5L10.51,6.75l1.06-1.08a12.575,12.575,0,0,1,9.1-3.87,13.057,13.057,0,0,1,9.185,3.78,10.714,10.714,0,0,1,.972,1.08L32.06,5.4a10.715,10.715,0,0,0-.972-1.08A14.628,14.628,0,0,0,20.667,0,14.156,14.156,0,0,0,10.333,4.41l-.972.99L5.741,9.09,0,14.94,20.667,36,31,25.47a14.7,14.7,0,0,0,4.328-10.53,16.675,16.675,0,0,0-.707-4.68Z"/><path class="a" d="M.068.016,1.762,0,1.694,7.222,0,7.238Z" transform="matrix(0.707, -0.707, 0.707, 0.707, 0.576, 1.522)"/><path class="a" d="M40.805.3l-5.3,5.4L31.8,9.48,21.9,19.47,11.748,9.12,10.6,10.38,21.9,21.99l10.6-10.8,3.886-3.96,5.652-5.67Z" transform="translate(-1.238 -0.03)"/><g transform="translate(45.838 11.61)"><path class="a" d="M53.313,13.44l3.356,9.18,3.356-9.18h1.413L56.669,26.13,51.9,13.44h1.413Zm11.128,0V25.41H63.117V13.44Zm9.1,1.26H68.769v3.6H73.45v1.26H68.769v4.68h4.769V25.5H67.444V13.44h6.094Zm2.385,10.71V12.9l9.185,9.81V13.44h1.325V25.95l-9.185-9.81v9.27Zm13.6,0V12.9l9.185,9.81V13.44h1.325V25.95l-9.274-9.81v9.27Zm19.96-3.33H104.45l-1.413,3.42h-1.413l5.387-12.6,5.3,12.6H110.9Zm-.442-1.26L107.1,16.05l-2.031,4.77Zm9.1-7.38h2.385a6.063,6.063,0,0,1,4.328,1.44,5.9,5.9,0,0,1,2.031,4.59,5.839,5.839,0,0,1-2.031,4.59,5.97,5.97,0,0,1-4.328,1.35H118.14Zm1.325,10.71h1.148a4.787,4.787,0,0,0,3.356-1.08,4.655,4.655,0,0,0,1.59-3.69c0-2.88-1.943-4.77-4.946-4.77h-1.148Zm11.128-10.71V25.41h-1.325V13.44Zm8.3,2.34a2.442,2.442,0,0,0-.707-.9,2.074,2.074,0,0,0-1.325-.45,1.8,1.8,0,0,0-1.943,1.89,1.323,1.323,0,0,0,.442,1.08,3.45,3.45,0,0,0,1.236.72l1.148.54a5.03,5.03,0,0,1,1.855,1.17,2.953,2.953,0,0,1,.883,2.16,3.532,3.532,0,0,1-3.709,3.69,3.449,3.449,0,0,1-2.561-.99,3.579,3.579,0,0,1-1.06-2.16l1.236-.36a2.734,2.734,0,0,0,.707,1.53,2.093,2.093,0,0,0,1.678.63,2.268,2.268,0,0,0,2.385-2.34,1.935,1.935,0,0,0-.618-1.44,4.223,4.223,0,0,0-1.413-.81l-1.06-.54a4.514,4.514,0,0,1-1.59-.99,2.537,2.537,0,0,1-.795-1.98,3.02,3.02,0,0,1,3.268-3.06,3.221,3.221,0,0,1,1.855.54,4.214,4.214,0,0,1,1.148,1.35l-1.06.72ZM144.9,14.7V25.41h-1.325V14.7h-2.826V13.44h7.066V14.7Zm6.536-1.26a5.584,5.584,0,0,1,2.826.63,3.079,3.079,0,0,1,1.325,2.7,3.183,3.183,0,0,1-3,3.33l3.709,5.4H154.7l-3.621-5.22h-.177V25.5h-1.325V13.44Zm-.53,5.58h.795c1.59,0,2.561-.81,2.561-2.16a1.914,1.914,0,0,0-.972-1.8,3.767,3.767,0,0,0-1.678-.36h-.707v4.32Zm8.832-5.58V25.41h-1.325V13.44Zm5.123,0a4.974,4.974,0,0,1,2.738.72,3,3,0,0,1,1.06,2.52,2.6,2.6,0,0,1-1.148,2.34,2.985,2.985,0,0,1,2.208,3.06,3.218,3.218,0,0,1-1.236,2.61,4.561,4.561,0,0,1-2.826.81h-2.914V13.44Zm-.795,5.31h.972a1.994,1.994,0,0,0,2.3-1.98c0-1.98-1.943-1.98-2.3-1.98h-1.06v3.96Zm0,5.4h1.5a3.015,3.015,0,0,0,2.031-.54,2.055,2.055,0,0,0,.795-1.62,2.006,2.006,0,0,0-.972-1.8,3.912,3.912,0,0,0-2.031-.36h-1.325v4.32Zm9.362-3.33a3.328,3.328,0,0,0,.972,2.88,2.982,2.982,0,0,0,3.886,0,3.328,3.328,0,0,0,.972-2.88V13.44h1.325v7.74a4.829,4.829,0,0,1-.707,2.88,4.472,4.472,0,0,1-6.889,0,4.829,4.829,0,0,1-.707-2.88V13.44H173.6v7.38ZM186.41,14.7V25.41h-1.325V14.7h-2.826V13.44h7.066V14.7Zm6.006-1.26V25.41h-1.325V13.44Zm2.385,6.03a6.1,6.1,0,1,1,12.188,0,6.1,6.1,0,1,1-12.188,0Zm1.325,0a4.773,4.773,0,1,0,9.538,0,4.773,4.773,0,1,0-9.538,0Zm13.336,5.94V12.9l9.185,9.81V13.44h1.325V25.95l-9.185-9.81v9.27Z" transform="translate(-51.9 -12.9)"/></g></g></svg>